<?xml version="1.0" standalone="no"?>
<!DOCTYPE svg PUBLIC "-//W3C//DTD SVG 20010904//EN"
 "http://www.w3.org/TR/2001/REC-SVG-20010904/DTD/svg10.dtd">
<svg version="1.0" xmlns="http://www.w3.org/2000/svg"
 width="332.000000pt" height="272.000000pt" viewBox="0 0 332.000000 272.000000"
 preserveAspectRatio="xMidYMid meet">
<metadata>
Created by potrace 1.15, written by Peter Selinger 2001-2017
</metadata>
<g transform="translate(0.000000,272.000000) scale(0.100000,-0.100000)"
fill="#000000" stroke="none">
<path d="M2085 2261 c-104 -27 -240 -67 -302 -89 -439 -157 -737 -414 -708
-610 6 -38 16 -56 53 -93 69 -68 164 -98 385 -123 125 -15 201 -55 237 -126
107 -209 -207 -541 -685 -725 -68 -27 -124 -50 -122 -51 6 -6 352 77 434 104
436 143 773 404 773 600 0 137 -117 212 -392 247 -159 21 -190 30 -243 77 -53
47 -69 91 -62 169 8 90 54 168 166 279 144 143 333 259 556 341 75 27 124 50
105 49 -3 -1 -90 -23 -195 -49z m-772 -749 c51 -55 140 -86 321 -112 187 -27
210 -34 258 -78 46 -42 68 -86 68 -134 l-1 -33 -19 37 c-42 78 -152 127 -346
153 -144 19 -219 39 -260 71 -39 29 -74 98 -74 145 l0 34 16 -30 c8 -16 25
-41 37 -53z"/>
</g>
</svg>
